<svg width="16.000000" height="12.000000" viewBox="0 0 16 12" fill="none" xmlns="http://www.w3.org/2000/svg" xmlns:xlink="http://www.w3.org/1999/xlink">
	<desc>
			Created with Pixso.
	</desc>
	<defs>
		<clipPath id="clip5_184">
			<rect id="gg:calendar-dates" width="16.000000" height="12.000000" fill="white" fill-opacity="0"/>
		</clipPath>
	</defs>
	<rect id="gg:calendar-dates" width="16.000000" height="12.000000" fill="#FFFFFF" fill-opacity="0"/>
	<g clip-path="url(#clip5_184)">
		<path id="Vector" d="M5.33 6.5C5.15 6.5 4.98 6.44 4.86 6.35C4.73 6.25 4.66 6.13 4.66 6C4.66 5.86 4.73 5.74 4.86 5.64C4.98 5.55 5.15 5.5 5.33 5.5C5.51 5.5 5.67 5.55 5.8 5.64C5.92 5.74 6 5.86 6 6C6 6.13 5.92 6.25 5.8 6.35C5.67 6.44 5.51 6.5 5.33 6.5ZM5.33 8.5C5.15 8.5 4.98 8.44 4.86 8.35C4.73 8.25 4.66 8.13 4.66 8C4.66 7.86 4.73 7.74 4.86 7.64C4.98 7.55 5.15 7.5 5.33 7.5C5.51 7.5 5.67 7.55 5.8 7.64C5.92 7.74 6 7.86 6 8C6 8.13 5.92 8.25 5.8 8.35C5.67 8.44 5.51 8.5 5.33 8.5ZM7.33 8C7.33 8.13 7.4 8.25 7.52 8.35C7.65 8.44 7.82 8.5 8 8.5C8.17 8.5 8.34 8.44 8.47 8.35C8.59 8.25 8.66 8.13 8.66 8C8.66 7.86 8.59 7.74 8.47 7.64C8.34 7.55 8.17 7.5 8 7.5C7.82 7.5 7.65 7.55 7.52 7.64C7.4 7.74 7.33 7.86 7.33 8ZM10.66 8.5C10.49 8.5 10.32 8.44 10.19 8.35C10.07 8.25 10 8.13 10 8C10 7.86 10.07 7.74 10.19 7.64C10.32 7.55 10.49 7.5 10.66 7.5C10.84 7.5 11.01 7.55 11.13 7.64C11.26 7.74 11.33 7.86 11.33 8C11.33 8.13 11.26 8.25 11.13 8.35C11.01 8.44 10.84 8.5 10.66 8.5ZM7.33 6C7.33 6.13 7.4 6.25 7.52 6.35C7.65 6.44 7.82 6.5 8 6.5C8.17 6.5 8.34 6.44 8.47 6.35C8.59 6.25 8.66 6.13 8.66 6C8.66 5.86 8.59 5.74 8.47 5.64C8.34 5.55 8.17 5.5 8 5.5C7.82 5.5 7.65 5.55 7.52 5.64C7.4 5.74 7.33 5.86 7.33 6ZM10.66 6.5C10.49 6.5 10.32 6.44 10.19 6.35C10.07 6.25 10 6.13 10 6C10 5.86 10.07 5.74 10.19 5.64C10.32 5.55 10.49 5.5 10.66 5.5C10.84 5.5 11.01 5.55 11.13 5.64C11.26 5.74 11.33 5.86 11.33 6C11.33 6.13 11.26 6.25 11.13 6.35C11.01 6.44 10.84 6.5 10.66 6.5ZM5.33 3.5C5.15 3.5 4.98 3.55 4.86 3.64C4.73 3.74 4.66 3.86 4.66 4C4.66 4.13 4.73 4.25 4.86 4.35C4.98 4.44 5.15 4.5 5.33 4.5L10.66 4.5C10.84 4.5 11.01 4.44 11.13 4.35C11.26 4.25 11.33 4.13 11.33 4C11.33 3.86 11.26 3.74 11.13 3.64C11.01 3.55 10.84 3.5 10.66 3.5L5.33 3.5Z" fill="#A7A7A7" fill-opacity="1.000000" fill-rule="nonzero"/>
		<path id="Vector" d="M4 1.5C3.46 1.5 2.96 1.65 2.58 1.93C2.21 2.22 2 2.6 2 3L2 9C2 9.39 2.21 9.77 2.58 10.06C2.96 10.34 3.46 10.5 4 10.5L12 10.5C12.53 10.5 13.03 10.34 13.41 10.06C13.78 9.77 14 9.39 14 9L14 3C14 2.6 13.78 2.22 13.41 1.93C13.03 1.65 12.53 1.5 12 1.5L4 1.5ZM12 2.5L4 2.5C3.82 2.5 3.65 2.55 3.52 2.64C3.4 2.74 3.33 2.86 3.33 3L3.33 9C3.33 9.13 3.4 9.25 3.52 9.35C3.65 9.44 3.82 9.5 4 9.5L12 9.5C12.17 9.5 12.34 9.44 12.47 9.35C12.59 9.25 12.66 9.13 12.66 9L12.66 3C12.66 2.86 12.59 2.74 12.47 2.64C12.34 2.55 12.17 2.5 12 2.5Z" fill="#A7A7A7" fill-opacity="1.000000" fill-rule="evenodd"/>
	</g>
</svg>
