<svg width="17.000000" height="17.000000" viewBox="0 0 20 20" fill="none" xmlns="http://www.w3.org/2000/svg" xmlns:xlink="http://www.w3.org/1999/xlink">
	<desc>
			Created with Pixso.
	</desc>
	<defs/>
	<path id="Vector" d="M9.28 6.71C8.6 6.03 7.67 5.64 6.71 5.64C5.74 5.64 4.82 6.03 4.14 6.71L1.56 9.28C0.88 9.96 0.49 10.89 0.49 11.86C0.49 12.82 0.88 13.75 1.56 14.43C2.24 15.11 3.17 15.5 4.13 15.5C5.1 15.5 6.03 15.11 6.71 14.43L8 13.14"  stroke="white" stroke-opacity="1.000000" stroke-width="1.666667" stroke-linejoin="round" stroke-linecap="round"/>
	<path id="Vector" d="M6.71 9.28C7.39 9.96 8.32 10.35 9.28 10.35C10.25 10.35 11.17 9.96 11.86 9.28L14.43 6.71C15.11 6.03 15.5 5.1 15.5 4.13C15.5 3.17 15.11 2.24 14.43 1.56C13.75 0.88 12.82 0.49 11.86 0.49C10.89 0.49 9.96 0.88 9.28 1.56L8 2.85" stroke="white" stroke-opacity="1.000000" stroke-width="1.666667" stroke-linejoin="round" stroke-linecap="round"/>
</svg>
